<mxfile host="app.diagrams.net" agent="Mozilla/5.0 (Windows NT 10.0; Win64; x64) AppleWebKit/537.36 (KHTML, like Gecko) Chrome/134.0.0.0 Safari/537.36" version="26.2.3" pages="2">
  <diagram name="Modelo Conceitual" id="XdbfW6OrvHlhTOaKMAr4">
    <mxGraphModel dx="1044" dy="562" grid="1" gridSize="10" guides="1" tooltips="1" connect="1" arrows="1" fold="1" page="1" pageScale="1" pageWidth="827" pageHeight="1169" math="0" shadow="0">
      <root>
        <mxCell id="0" />
        <mxCell id="1" parent="0" />
        <mxCell id="3s5COx7zcraZV2LJmLjN-1" value="Medico" style="whiteSpace=wrap;html=1;align=center;" vertex="1" parent="1">
          <mxGeometry x="20" y="110" width="150" height="70" as="geometry" />
        </mxCell>
        <mxCell id="3s5COx7zcraZV2LJmLjN-2" value="paciente" style="whiteSpace=wrap;html=1;align=center;" vertex="1" parent="1">
          <mxGeometry x="660" y="110" width="130" height="70" as="geometry" />
        </mxCell>
        <mxCell id="3s5COx7zcraZV2LJmLjN-9" style="edgeStyle=orthogonalEdgeStyle;rounded=0;orthogonalLoop=1;jettySize=auto;html=1;entryX=1;entryY=0.5;entryDx=0;entryDy=0;endArrow=none;startFill=0;" edge="1" parent="1" source="3s5COx7zcraZV2LJmLjN-3" target="3s5COx7zcraZV2LJmLjN-6">
          <mxGeometry relative="1" as="geometry" />
        </mxCell>
        <mxCell id="3s5COx7zcraZV2LJmLjN-14" style="edgeStyle=orthogonalEdgeStyle;rounded=0;orthogonalLoop=1;jettySize=auto;html=1;entryX=0;entryY=0.5;entryDx=0;entryDy=0;endArrow=none;startFill=0;" edge="1" parent="1" source="3s5COx7zcraZV2LJmLjN-3" target="3s5COx7zcraZV2LJmLjN-11">
          <mxGeometry relative="1" as="geometry" />
        </mxCell>
        <mxCell id="3s5COx7zcraZV2LJmLjN-3" value="consulta" style="whiteSpace=wrap;html=1;align=center;" vertex="1" parent="1">
          <mxGeometry x="334" y="110" width="116" height="70" as="geometry" />
        </mxCell>
        <mxCell id="3s5COx7zcraZV2LJmLjN-17" style="edgeStyle=orthogonalEdgeStyle;rounded=0;orthogonalLoop=1;jettySize=auto;html=1;entryX=0.5;entryY=1;entryDx=0;entryDy=0;endArrow=none;startFill=0;" edge="1" parent="1" source="3s5COx7zcraZV2LJmLjN-4" target="3s5COx7zcraZV2LJmLjN-16">
          <mxGeometry relative="1" as="geometry" />
        </mxCell>
        <mxCell id="3s5COx7zcraZV2LJmLjN-4" value="localidade" style="whiteSpace=wrap;html=1;align=center;" vertex="1" parent="1">
          <mxGeometry x="320" y="320" width="160" height="70" as="geometry" />
        </mxCell>
        <mxCell id="3s5COx7zcraZV2LJmLjN-10" style="edgeStyle=orthogonalEdgeStyle;rounded=0;orthogonalLoop=1;jettySize=auto;html=1;entryX=1;entryY=0.5;entryDx=0;entryDy=0;endArrow=none;startFill=0;" edge="1" parent="1" source="3s5COx7zcraZV2LJmLjN-6" target="3s5COx7zcraZV2LJmLjN-1">
          <mxGeometry relative="1" as="geometry" />
        </mxCell>
        <mxCell id="3s5COx7zcraZV2LJmLjN-6" value="Possui" style="shape=rhombus;perimeter=rhombusPerimeter;whiteSpace=wrap;html=1;align=center;" vertex="1" parent="1">
          <mxGeometry x="210" y="120" width="100" height="50" as="geometry" />
        </mxCell>
        <mxCell id="3s5COx7zcraZV2LJmLjN-13" style="edgeStyle=orthogonalEdgeStyle;rounded=0;orthogonalLoop=1;jettySize=auto;html=1;endArrow=none;startFill=0;" edge="1" parent="1" source="3s5COx7zcraZV2LJmLjN-11" target="3s5COx7zcraZV2LJmLjN-2">
          <mxGeometry relative="1" as="geometry" />
        </mxCell>
        <mxCell id="3s5COx7zcraZV2LJmLjN-11" value="possui" style="shape=rhombus;perimeter=rhombusPerimeter;whiteSpace=wrap;html=1;align=center;" vertex="1" parent="1">
          <mxGeometry x="510" y="120" width="100" height="50" as="geometry" />
        </mxCell>
        <mxCell id="3s5COx7zcraZV2LJmLjN-16" value="possui" style="shape=rhombus;perimeter=rhombusPerimeter;whiteSpace=wrap;html=1;align=center;" vertex="1" parent="1">
          <mxGeometry x="340" y="230" width="120" height="60" as="geometry" />
        </mxCell>
        <mxCell id="3s5COx7zcraZV2LJmLjN-18" style="edgeStyle=orthogonalEdgeStyle;rounded=0;orthogonalLoop=1;jettySize=auto;html=1;entryX=0.572;entryY=0.98;entryDx=0;entryDy=0;entryPerimeter=0;endArrow=none;startFill=0;" edge="1" parent="1" source="3s5COx7zcraZV2LJmLjN-16" target="3s5COx7zcraZV2LJmLjN-3">
          <mxGeometry relative="1" as="geometry" />
        </mxCell>
        <mxCell id="3s5COx7zcraZV2LJmLjN-19" value="(1,1)" style="text;html=1;align=center;verticalAlign=middle;resizable=0;points=[];autosize=1;strokeColor=none;fillColor=none;" vertex="1" parent="1">
          <mxGeometry x="170" y="110" width="50" height="30" as="geometry" />
        </mxCell>
        <mxCell id="3s5COx7zcraZV2LJmLjN-20" value="(0,N)" style="text;html=1;align=center;verticalAlign=middle;resizable=0;points=[];autosize=1;strokeColor=none;fillColor=none;" vertex="1" parent="1">
          <mxGeometry x="284" y="110" width="50" height="30" as="geometry" />
        </mxCell>
        <mxCell id="3s5COx7zcraZV2LJmLjN-21" value="(1,1)" style="text;html=1;align=center;verticalAlign=middle;resizable=0;points=[];autosize=1;strokeColor=none;fillColor=none;" vertex="1" parent="1">
          <mxGeometry x="610" y="110" width="50" height="30" as="geometry" />
        </mxCell>
        <mxCell id="3s5COx7zcraZV2LJmLjN-23" value="(0,N)" style="text;html=1;align=center;verticalAlign=middle;resizable=0;points=[];autosize=1;strokeColor=none;fillColor=none;" vertex="1" parent="1">
          <mxGeometry x="460" y="110" width="50" height="30" as="geometry" />
        </mxCell>
        <mxCell id="3s5COx7zcraZV2LJmLjN-24" value="(1,1)" style="text;html=1;align=center;verticalAlign=middle;resizable=0;points=[];autosize=1;strokeColor=none;fillColor=none;" vertex="1" parent="1">
          <mxGeometry x="414" y="280" width="50" height="30" as="geometry" />
        </mxCell>
        <mxCell id="3s5COx7zcraZV2LJmLjN-25" value="(0,N)" style="text;html=1;align=center;verticalAlign=middle;resizable=0;points=[];autosize=1;strokeColor=none;fillColor=none;" vertex="1" parent="1">
          <mxGeometry x="410" y="190" width="50" height="30" as="geometry" />
        </mxCell>
      </root>
    </mxGraphModel>
  </diagram>
  <diagram id="AGFyc7qadHE_hdoSqZsq" name="Modelo logico">
    <mxGraphModel dx="1044" dy="562" grid="1" gridSize="10" guides="1" tooltips="1" connect="1" arrows="1" fold="1" page="1" pageScale="1" pageWidth="827" pageHeight="1169" math="0" shadow="0">
      <root>
        <mxCell id="0" />
        <mxCell id="1" parent="0" />
      </root>
    </mxGraphModel>
  </diagram>
</mxfile>
